<?xml version="1.0" standalone="no"?>
<!DOCTYPE svg PUBLIC "-//W3C//DTD SVG 20010904//EN"
 "http://www.w3.org/TR/2001/REC-SVG-20010904/DTD/svg10.dtd">
<svg version="1.0" xmlns="http://www.w3.org/2000/svg"
 width="674.000000pt" height="674.000000pt" viewBox="0 0 674.000000 674.000000"
 preserveAspectRatio="xMidYMid meet">
<metadata>
Created by potrace 1.11, written by Peter Selinger 2001-2013
</metadata>
<g transform="translate(0.000000,674.000000) scale(0.100000,-0.100000)"
fill="#000000" stroke="none">
<path d="M0 3370 l0 -3370 3370 0 3370 0 0 3370 0 3370 -3370 0 -3370 0 0
-3370z m2696 1485 c246 -43 467 -160 656 -346 71 -69 72 -70 94 -52 250 205
324 258 452 322 121 61 216 81 412 88 238 7 423 -25 623 -112 158 -68 226
-114 347 -235 245 -244 354 -491 389 -880 7 -70 11 -446 11 -952 l0 -838 -330
0 -330 0 0 883 c0 860 -1 884 -21 957 -89 322 -330 504 -641 486 -277 -15
-463 -168 -540 -443 -22 -77 -22 -88 -26 -980 l-3 -903 -339 0 -339 0 -3 908
-3 907 -24 70 c-100 298 -322 458 -611 442 -268 -15 -481 -189 -578 -472 l-27
-80 -3 -887 -3 -888 -329 0 -330 0 2 1448 3 1447 328 3 327 2 0 -90 0 -90 63
64 c107 109 250 188 397 220 88 19 268 19 376 1z"/>
</g>
</svg>
